                        <svg className="w-full" viewBox="0 0 1354 367" fill="none" xmlns="http://www.w3.org/2000/svg"><path d="M245.579 5.57V171.18H34.25V5.571H.723v355.6H34.25V176.259h211.328v184.912h34.036V5.571h-34.036Zm293.937 5.08V5.57H327.172v355.601h212.344v-5.08H360.7v-172.72h163.576v-5.08H360.7V10.651h178.816Zm67.762 345.441V5.571H573.75v355.6h212.852v-5.08H607.278Zm239.634 0V5.571h-33.528v355.6h212.856v-5.08H846.912ZM1172.87.491c-96.52 0-180.853 76.708-180.853 182.88s84.333 182.88 180.853 182.88c96.52 0 180.84-76.708 180.84-182.88S1269.39.491 1172.87.491Zm0 360.68c-84.33 0-143.77-69.596-143.77-177.8 0-108.204 59.44-177.8 143.77-177.8 84.32 0 143.76 69.596 143.76 177.8 0 108.204-59.44 177.8-143.76 177.8Z" fill="currentColor"/></svg>
                      
